<?xml version="1.0" encoding="utf-8"?>
<!-- Generator: Adobe Illustrator 22.0.1, SVG Export Plug-In . SVG Version: 6.00 Build 0)  -->
<svg version="1.1" id="Layer_1" xmlns="http://www.w3.org/2000/svg" xmlns:xlink="http://www.w3.org/1999/xlink" x="0px" y="0px"
	 viewBox="0 0 768 768" style="enable-background:new 0 0 768 768;" xml:space="preserve">
<style type="text/css">
	.st0{fill:url(#SVGID_1_);}
	.st1{fill:#E5E5E5;}
</style>
<linearGradient id="SVGID_1_" gradientUnits="userSpaceOnUse" x1="384.05" y1="603.3225" x2="384.05" y2="164.6775">
	<stop  offset="0" style="stop-color:#7FA57F"/>
	<stop  offset="1" style="stop-color:#5AD37F"/>
</linearGradient>
<path class="st0" d="M486.8,164.7H281.2c-49.2,0-89.1,39.9-89.1,89.1c0,46.9,36.2,85.3,82.2,88.8V384c0,16.8,4.7,32.9,13.3,46.6
	c8.5,13.8,20.7,25.2,35.8,32.7c1.8,0.9,3.3,2.2,4.2,3.9c1,1.6,1.5,3.5,1.5,5.5v48.4c0,4.2-1.2,8.2-3.3,11.7
	c-2.1,3.4-5.1,6.3-8.9,8.1l-15.2,7.6v54.8h164.5v-54.8l-15.2-7.5c-7.5-3.8-12.3-11.4-12.3-19.9v-48.4c0-3.9,2.2-7.6,5.8-9.3
	c15-7.5,27.2-18.9,35.8-32.7c8.5-13.8,13.3-29.8,13.3-46.6v-41.4c46-3.5,82.2-42,82.2-88.8C575.9,204.6,536,164.7,486.8,164.7z
	 M274.3,315.1c-30.8-3.4-54.8-29.6-54.8-61.3s24-57.9,54.8-61.3V315.1z M493.7,315.1V192.4c30.8,3.4,54.8,29.6,54.8,61.3
	S524.5,311.7,493.7,315.1z"/>
<path class="st1" d="M704.5,185.1L384,0L63.5,185.1l-12,6.9v384L372,761.1l12,6.9l12-6.9L716.5,576V192L704.5,185.1z M384,27.7
	l296.5,171.2L384,370.2L87.5,198.9L384,27.7z M75.5,562.1V219.7L372,390.9v342.4L75.5,562.1z M692.5,562.1L396,733.4V390.9
	l296.5-171.2V562.1z"/>
</svg>
