<?xml version="1.0" encoding="utf-8"?>
<!-- Generator: Adobe Illustrator 22.0.1, SVG Export Plug-In . SVG Version: 6.00 Build 0)  -->
<svg version="1.1" id="Layer_1" xmlns="http://www.w3.org/2000/svg" xmlns:xlink="http://www.w3.org/1999/xlink" x="0px" y="0px"
	 viewBox="0 0 768 768" style="enable-background:new 0 0 768 768;" xml:space="preserve">
<style type="text/css">
	.st0{fill:#383838;}
	.st1{clip-path:url(#SVGID_2_);}
	.st2{fill:#A3A3A3;}
	.st3{fill:#C1C1C1;}
	.st4{fill:#EAEAEA;}
	.st5{fill:#212121;}
</style>
<path class="st0" d="M688,752H80c-35.3,0-64-28.7-64-64V80c0-35.3,28.7-64,64-64h608c35.3,0,64,28.7,64,64v608
	C752,723.3,723.3,752,688,752z"/>
<g>
	<defs>
		<path id="SVGID_1_" d="M704,768H64c-35.3,0-64-28.7-64-64V64C0,28.7,28.7,0,64,0h640c35.3,0,64,28.7,64,64v640
			C768,739.3,739.3,768,704,768z"/>
	</defs>
	<clipPath id="SVGID_2_">
		<use xlink:href="#SVGID_1_"  style="overflow:visible;"/>
	</clipPath>
	<g class="st1">
		<path class="st2" d="M719.9,495.6V352.4c36,4,64,34.5,64,71.6S755.9,491.6,719.9,495.6z M463.9,495.6c-36-4-64-34.5-64-71.6
			s28-67.6,64-71.6V495.6z M711.9,320h-240c-57.4,0-104,46.6-104,104c0,54.8,42.3,99.6,96,103.7V576c0,19.6,5.5,38.4,15.5,54.4
			c9.9,16.1,24.2,29.4,41.8,38.2c2.1,1,3.8,2.6,4.9,4.5c1.2,1.9,1.8,4.1,1.8,6.4V736c0,4.9-1.4,9.6-3.9,13.6s-6,7.3-10.4,9.5
			l-17.7,8.9v64h192v-64l-17.7-8.8c-8.8-4.4-14.3-13.3-14.3-23.2v-56.5c0-4.6,2.6-8.9,6.8-10.9c17.5-8.8,31.8-22.1,41.8-38.2
			c9.9-16.1,15.5-34.8,15.5-54.4v-48.3c53.7-4.1,96-49,96-103.7C815.9,366.6,769.3,320,711.9,320z"/>
		<path class="st3" d="M608,399.6V256.4c36,4,64,34.5,64,71.6S644,395.6,608,399.6z M352,399.6c-36-4-64-34.5-64-71.6
			s28-67.6,64-71.6V399.6z M600,224H360c-57.4,0-104,46.6-104,104c0,54.8,42.3,99.6,96,103.7V480c0,19.6,5.5,38.4,15.5,54.4
			c9.9,16.1,24.2,29.4,41.8,38.2c2.1,1,3.8,2.6,4.9,4.5c1.2,1.9,1.8,4.1,1.8,6.4V640c0,4.9-1.4,9.6-3.9,13.6s-6,7.3-10.4,9.5
			L384,672v64h192v-64l-17.7-8.8c-8.8-4.4-14.3-13.3-14.3-23.2v-56.5c0-4.6,2.6-8.9,6.8-10.9c17.5-8.8,31.8-22.1,41.8-38.2
			c9.9-16.1,15.5-34.8,15.5-54.4v-48.3c53.7-4.1,96-49,96-103.7C704,270.6,657.4,224,600,224z"/>
		<path class="st4" d="M495.9,303.6V160.4c36,4,64,34.5,64,71.6S531.9,299.6,495.9,303.6z M239.9,303.6c-36-4-64-34.5-64-71.6
			s28-67.6,64-71.6V303.6z M487.9,128h-240c-57.4,0-104,46.6-104,104c0,54.8,42.3,99.6,96,103.7V384c0,19.6,5.5,38.4,15.5,54.4
			c9.9,16.1,24.2,29.4,41.8,38.2c2.1,1,3.8,2.6,4.9,4.5c1.2,1.9,1.8,4.1,1.8,6.4V544c0,4.9-1.4,9.6-3.9,13.6s-6,7.3-10.4,9.5
			l-17.7,8.9v64h192v-64l-17.7-8.8c-8.8-4.4-14.3-13.3-14.3-23.2v-56.5c0-4.6,2.6-8.9,6.8-10.9c17.5-8.8,31.8-22.1,41.8-38.2
			c9.9-16.1,15.5-34.8,15.5-54.4v-48.3c53.7-4.1,96-49,96-103.7C591.9,174.6,545.3,128,487.9,128z"/>
	</g>
</g>
<g>
	<path class="st5" d="M704,32c17.6,0,32,14.4,32,32v640c0,17.6-14.4,32-32,32H64c-17.6,0-32-14.4-32-32V64c0-17.6,14.4-32,32-32H704
		 M704,0H64C28.7,0,0,28.7,0,64v640c0,35.3,28.7,64,64,64h640c35.3,0,64-28.7,64-64V64C768,28.7,739.3,0,704,0L704,0z"/>
</g>
</svg>
